<?xml version="1.0" encoding="UTF-8"?>
<svg version="1.1" xmlns="http://www.w3.org/2000/svg" width="1080" height="600">
<path d="M0 0 C356.4 0 712.8 0 1080 0 C1080 198 1080 396 1080 600 C723.6 600 367.2 600 0 600 C0 402 0 204 0 0 Z " fill="#D40000" transform="translate(0,0)"/>
<path d="M0 0 C356.4 0 712.8 0 1080 0 C1080 115.5 1080 231 1080 350 C827.22 350 574.44 350 314 350 C314 349.67 314 349.34 314 349 C314.92296875 348.85304688 315.8459375 348.70609375 316.796875 348.5546875 C333.52812693 345.74218148 349.34765485 341.20402873 364.24072266 332.97167969 C365.88139109 332.06550978 367.53975335 331.19158249 369.19921875 330.3203125 C377.35601724 325.86339516 384.18233431 320.25211639 391 314 C391.52126465 313.52401367 392.0425293 313.04802734 392.57958984 312.55761719 C415.17522623 291.65541357 428.10707132 264.09829262 433 234 C433.19207031 232.91460937 433.38414062 231.82921875 433.58203125 230.7109375 C435.50126472 213.67101417 434.52903702 196.5233561 430 180 C429.81808105 179.32582031 429.63616211 178.65164062 429.44873047 177.95703125 C420.0188252 144.18128477 396.24302733 114.72286968 365.95947266 97.39013672 C343.94654524 85.3498028 319.85329573 80.86263648 294.98432922 80.84178162 C293.71719642 80.83684364 292.45006362 80.83190566 291.14453286 80.82681805 C287.65770415 80.81335778 284.17088507 80.80585415 280.68403733 80.79939139 C276.91254126 80.7913336 273.14106491 80.77765464 269.36958313 80.76467896 C262.84527014 80.74299195 256.32095507 80.72481932 249.79662514 80.70907402 C240.36368791 80.68630417 230.93077258 80.65817146 221.49785402 80.62875474 C206.19136876 80.58116572 190.88487451 80.53787817 175.57836914 80.49731445 C160.71475526 80.45791519 145.85114935 80.41647844 130.98754883 80.37231445 C130.07044415 80.36959018 129.15333947 80.36686591 128.20844374 80.36405908 C123.60732667 80.35037887 119.00620972 80.33665875 114.40509284 80.32291877 C76.27007757 80.20909061 38.13504622 80.1030471 0 80 C0 53.6 0 27.2 0 0 Z " fill="#000000" transform="translate(0,0)"/>
<path d="M0 0 C38.93098972 -0.04414791 77.8619557 -0.08105429 116.79296332 -0.10213066 C121.39631804 -0.10463187 125.9996727 -0.10722053 130.60302734 -0.10986328 C131.51941511 -0.1103879 132.43580287 -0.11091252 133.37995996 -0.11145304 C148.18908671 -0.12013931 162.99819783 -0.13589943 177.80731533 -0.15430559 C193.01962821 -0.17305422 208.23193294 -0.18412719 223.4442569 -0.18817699 C232.81982367 -0.19091178 242.19534623 -0.19952771 251.57089938 -0.21583293 C258.01302806 -0.22646117 264.45513411 -0.22958751 270.8972709 -0.22700275 C274.60576905 -0.22573049 278.31419032 -0.22758475 282.02267456 -0.23841095 C320.27076781 -0.34444289 320.27076781 -0.34444289 336.625 4.6875 C337.49979004 4.94877686 338.37458008 5.21005371 339.27587891 5.47924805 C358.84712495 11.51338838 375.97853823 21.07466192 391 35 C391.54930176 35.50547363 392.09860352 36.01094727 392.66455078 36.53173828 C416.49270672 58.70084072 433.06744564 90.43530873 435.20874023 123.19335938 C435.30294772 126.48587367 435.32895354 129.76869181 435.3125 133.0625 C435.30758545 134.23917236 435.3026709 135.41584473 435.29760742 136.62817383 C434.9484237 162.90648731 427.46150182 189.47579311 412 211 C411.29617188 211.99902344 410.59234375 212.99804688 409.8671875 214.02734375 C393.77905948 235.92949823 373.02343708 252.14118434 347.625 261.75 C346.91956055 262.01973633 346.21412109 262.28947266 345.48730469 262.56738281 C337.42308382 265.47279513 329.49261753 267.00173705 321 269 C696.705 269.495 696.705 269.495 1080 270 C1080 306.3 1080 342.6 1080 380 C1043.94736003 380.03241965 1043.94736003 380.03241965 1029.96081543 380.04443359 C1029.09016458 380.04518158 1028.21951373 380.04592956 1027.32247952 380.04670021 C969.65710931 380.09616738 911.99173979 380.14085358 854.32635498 380.16937256 C852.65572849 380.1702009 852.65572849 380.1702009 850.95135197 380.17104598 C826.74521788 380.18301824 802.53908345 380.19409888 778.33294852 380.20426132 C766.46187446 380.20925056 754.59080049 380.21443679 742.71972656 380.21972656 C740.94777621 380.22051112 740.94777621 380.22051112 739.14002889 380.22131152 C700.86637876 380.23834998 662.59275228 380.26839005 624.31911648 380.30518888 C584.98051532 380.34294286 545.64192726 380.36754725 506.30330829 380.37565996 C500.74410359 380.37681254 495.18489893 380.37811509 489.62569427 380.37950897 C488.53158755 380.37977866 487.43748083 380.38004836 486.31021936 380.38032622 C468.71426872 380.3850489 451.1183586 380.40358984 433.52242447 380.42732814 C415.8227923 380.45091035 398.12320022 380.45986359 380.4235529 380.45400551 C369.91421398 380.45096849 359.40502203 380.45902671 348.89570971 380.48319017 C341.86496095 380.49824765 334.83430785 380.49861413 327.80355235 380.48732725 C323.80422749 380.48131883 319.80517953 380.48141971 315.80588499 380.49953273 C278.39503379 380.65886036 247.97098402 373.50348413 220.43457031 346.44873047 C200.22999457 326.04472222 189.75531129 298.53559554 189.5 270 C189.75883934 241.07008201 200.4531796 215.16572884 220 194 C220.59296875 193.33742188 221.1859375 192.67484375 221.796875 191.9921875 C240.62202889 171.95551381 268.21805036 160.61679313 295.43505859 159.54443359 C312.59228282 159.24721155 326.89565298 164.33664023 339.6875 176.0625 C350.37118147 187.32160417 355.55755557 200.9541473 355.49047852 216.37670898 C354.9160603 232.14789366 347.87725863 246.04594976 336.5546875 256.91796875 C332.07443877 260.56930296 327.1019963 263.31519315 322 266 C342.40241167 260.17590731 358.06943859 247.97447671 368.93359375 229.7578125 C378.97115045 211.06421229 382.3816956 190.17354065 377.1015625 169.3984375 C373.425369 158.05698948 368.56880622 148.29255091 361 139 C360.53207031 138.36964844 360.06414062 137.73929688 359.58203125 137.08984375 C348.55565028 122.89459083 331.01468954 115.77202891 314 112 C313.21962555 111.82287462 312.4392511 111.64574924 311.63522893 111.46325642 C308.88836089 110.98037456 306.34694675 110.86924549 303.55899334 110.8613348 C302.47266886 110.85586036 301.38634439 110.85038591 300.26710099 110.84474558 C299.07936217 110.84376747 297.89162336 110.84278936 296.66789246 110.84178162 C294.76875775 110.83437465 294.76875775 110.83437465 292.83125669 110.82681805 C289.31947036 110.81325338 285.80769371 110.80582343 282.29588807 110.79939139 C278.50792632 110.79138011 274.71998465 110.77768483 270.93203735 110.76467896 C264.36996782 110.74292655 257.80789625 110.72477754 251.24580956 110.70907402 C241.75812708 110.68636415 232.27046683 110.65822286 222.78280322 110.62875474 C207.38979855 110.58109255 191.99678479 110.53782464 176.60375977 110.49731445 C161.65062757 110.45795255 146.69750345 110.41652465 131.74438477 110.37231445 C130.82271675 110.36959018 129.90104873 110.36686591 128.95145138 110.36405908 C124.32772644 110.35037949 119.70400161 110.33665924 115.08027685 110.32291877 C76.72020041 110.20897555 38.36010777 110.10296993 0 110 C0 73.7 0 37.4 0 0 Z " fill="#FEFEFE" transform="translate(0,80)"/>
<path d="M0 0 C2 1 2 1 3 3 C1.06643218 3.69848264 -0.87202298 4.38344814 -2.8125 5.0625 C-3.89144531 5.44535156 -4.97039062 5.82820313 -6.08203125 6.22265625 C-9 7 -9 7 -12 6 C-10.04669132 4.96958487 -8.08718472 3.9509107 -6.125 2.9375 C-5.03445313 2.36902344 -3.94390625 1.80054688 -2.8203125 1.21484375 C-1.42425781 0.61349609 -1.42425781 0.61349609 0 0 Z " fill="#D92020" transform="translate(329,341)"/>
</svg>
